<svg width="156" height="58" viewBox="0 0 156 58" fill="none" xmlns="http://www.w3.org/2000/svg">
    <path d="M137.21 48.19H128.81V33.62H137.21C142.81 33.62 145.68 37.24 145.68 40.87C145.68 44.57 142.8 48.19 137.21 48.19ZM128.81 9.73001H137.21C141.76 9.73001 144.09 13.35 144.09 17.05C144.09 20.67 141.77 24.29 137.21 24.29H128.81V9.73001ZM148.48 28.64C152.48 25.75 153.92 21.24 153.92 16.57C153.92 8.37001 149.44 0 137.21 0H128.77V0.0100098H118.74V19.54C112.43 13.06 103.7 8.98999 94.21 8.98999C84.98 8.98999 76.25 12.63 69.63 19.25C67.58 21.3 65.82 23.55 64.36 25.96C58.23 15.88 47.17 9 34.84 9C25.61 9 16.89 12.64 10.26 19.26C3.63999 25.88 0 34.58 0 43.77H10.03V43.75C10.04 30.38 21.4 19.1 34.83 19.1C48.13 19.1 59.34 30.39 59.35 43.76V43.77H69.38V43.76C69.39 30.38 80.74 19.1 94.19 19.1C107.48 19.1 118.7 30.39 118.71 43.76V43.77H118.72V57.94H137.2C150.63 57.94 155.51 49.57 155.51 41.37C155.52 36.36 153.75 31.45 148.48 28.64Z" fill="#25292A"></path>
</svg>