<svg width="22" height="22" viewBox="0 0 22 22" fill="none" xmlns="http://www.w3.org/2000/svg">
<g clip-path="url(#clip0_115_5228)">
<path fill-rule="evenodd" clip-rule="evenodd" d="M11 0.0628662C11.4339 0.0628662 11.7857 0.414642 11.7857 0.84858V21.2772C11.7857 21.7111 11.4339 22.0629 11 22.0629C10.5661 22.0629 10.2143 21.7111 10.2143 21.2772V0.84858C10.2143 0.414642 10.5661 0.0628662 11 0.0628662Z" fill="currentColor"/>
<path fill-rule="evenodd" clip-rule="evenodd" d="M0 11C0 10.5661 0.351776 10.2143 0.785714 10.2143H21.2143C21.6482 10.2143 22 10.5661 22 11C22 11.4339 21.6482 11.7857 21.2143 11.7857H0.785714C0.351776 11.7857 0 11.4339 0 11Z" fill="currentColor"/>
</g>
<defs>
<clipPath id="clip0_115_5228">
<rect width="22" height="22" fill="white"/>
</clipPath>
</defs>
</svg>
