<svg width="17" height="20" viewBox="0 0 17 20" fill="none" xmlns="http://www.w3.org/2000/svg">
    <path d="M6 10C5.20888 10 4.43552 10.2346 3.77772 10.6741C3.11992 11.1136 2.60723 11.7384 2.30448 12.4693C2.00173 13.2002 1.92252 14.0044 2.07686 14.7804C2.2312 15.5563 2.61216 16.269 3.17157 16.8284C3.73098 17.3878 4.44372 17.7688 5.21964 17.9231C5.99556 18.0775 6.79983 17.9983 7.53074 17.6955C8.26164 17.3928 8.88636 16.8801 9.32588 16.2223C9.76541 15.5645 10 14.7911 10 14V2C10 3.32608 10.5268 4.59785 11.4645 5.53553C12.4022 6.47322 13.6739 7 15 7" stroke="black" stroke-width="2.75" stroke-linecap="round" stroke-linejoin="round"></path>
</svg>